<svg width="24" height="24" viewBox="0 0 24 24" fill="none" xmlns="http://www.w3.org/2000/svg">
<path d="M18.9632 2.67471C19.5478 2.41745 19.8402 2.28881 20.0196 2.34531C20.1751 2.39429 20.297 2.51601 20.3461 2.67147C20.4028 2.85081 20.2745 3.1433 20.018 3.72829L12.7366 20.3298C12.505 20.8579 12.3892 21.1219 12.2273 21.2027C12.0867 21.2729 11.9213 21.2729 11.7807 21.2027C11.6188 21.1219 11.503 20.8579 11.2713 20.3298L3.98998 3.72829C3.7334 3.1433 3.60512 2.85081 3.66183 2.67147C3.71098 2.51601 3.83285 2.39429 3.98837 2.34531C4.16777 2.28881 4.46011 2.41745 5.0448 2.67471L11.6818 5.59498C11.8005 5.6472 11.8598 5.67331 11.9215 5.68363C11.9761 5.69277 12.0319 5.69277 12.0865 5.68363C12.1481 5.67331 12.2075 5.6472 12.3262 5.59498L18.9632 2.67471Z" stroke="black" stroke-width="2" stroke-linecap="round" stroke-linejoin="round"/>
</svg>
