<svg xmlns="http://www.w3.org/2000/svg" xmlns:xlink="http://www.w3.org/1999/xlink" version="1.1" width="256" height="256" viewBox="0 0 256 256" xml:space="preserve">
<g style="stroke: none; stroke-width: 0; stroke-dasharray: none; stroke-linecap: butt; stroke-linejoin: miter; stroke-miterlimit: 10; fill: none; fill-rule: nonzero; opacity: 1;" transform="translate(1.4065934065934016 1.4065934065934016) scale(2.81 2.81)">
	<path d="M 2.571 30 l 84.859 0 C 81.254 12.534 64.611 0.015 45.034 0 l -0.068 0 C 25.389 0.015 8.745 12.534 2.571 30 z" style="stroke: none; stroke-width: 1; stroke-dasharray: none; stroke-linecap: butt; stroke-linejoin: miter; stroke-miterlimit: 10; fill: rgb(0,185,228); fill-rule: nonzero; opacity: 1;" transform=" matrix(1 0 0 1 0 0) " stroke-linecap="round"/>
	<path d="M 87.429 60 L 2.571 60 C 8.75 77.476 25.408 90 45 90 S 81.25 77.476 87.429 60 z" style="stroke: none; stroke-width: 1; stroke-dasharray: none; stroke-linecap: butt; stroke-linejoin: miter; stroke-miterlimit: 10; fill: rgb(63,156,53); fill-rule: nonzero; opacity: 1;" transform=" matrix(1 0 0 1 0 0) " stroke-linecap="round"/>
	<path d="M 87.429 60 C 89.088 55.307 90 50.261 90 45 c 0 -5.261 -0.912 -10.307 -2.571 -15 L 2.571 30 C 0.911 34.693 0 39.739 0 45 c 0 5.261 0.912 10.308 2.571 15 L 87.429 60 z" style="stroke: none; stroke-width: 1; stroke-dasharray: none; stroke-linecap: butt; stroke-linejoin: miter; stroke-miterlimit: 10; fill: rgb(255,255,255); fill-rule: nonzero; opacity: 1;" transform=" matrix(1 0 0 1 0 0) " stroke-linecap="round"/>
	<polygon points="48.93,35.33 48.93,35.33 48.93,35.33 " style="stroke: none; stroke-width: 1; stroke-dasharray: none; stroke-linecap: butt; stroke-linejoin: miter; stroke-miterlimit: 10; fill: rgb(243,244,245); fill-rule: nonzero; opacity: 1;" transform="  matrix(1 0 0 1 0 0) "/>
	<polygon points="41.06,35.33 41.06,35.33 41.06,35.33 " style="stroke: none; stroke-width: 1; stroke-dasharray: none; stroke-linecap: butt; stroke-linejoin: miter; stroke-miterlimit: 10; fill: rgb(243,244,245); fill-rule: nonzero; opacity: 1;" transform="  matrix(1 0 0 1 0 0) "/>
	<polygon points="41.77,32.5 41.77,32.5 41.77,32.5 " style="stroke: none; stroke-width: 1; stroke-dasharray: none; stroke-linecap: butt; stroke-linejoin: miter; stroke-miterlimit: 10; fill: rgb(243,244,245); fill-rule: nonzero; opacity: 1;" transform="  matrix(1 0 0 1 0 0) "/>
	<path d="M 2.939 61 h 84.123 c 0.251 -0.659 0.486 -1.326 0.706 -2 H 2.232 C 2.453 59.674 2.688 60.341 2.939 61 z" style="stroke: none; stroke-width: 1; stroke-dasharray: none; stroke-linecap: butt; stroke-linejoin: miter; stroke-miterlimit: 10; fill: rgb(243,244,245); fill-rule: nonzero; opacity: 1;" transform=" matrix(1 0 0 1 0 0) " stroke-linecap="round"/>
	<path d="M 2.232 31 h 85.535 c -0.22 -0.674 -0.455 -1.341 -0.706 -2 H 2.939 C 2.688 29.659 2.453 30.326 2.232 31 z" style="stroke: none; stroke-width: 1; stroke-dasharray: none; stroke-linecap: butt; stroke-linejoin: miter; stroke-miterlimit: 10; fill: rgb(243,244,245); fill-rule: nonzero; opacity: 1;" transform=" matrix(1 0 0 1 0 0) " stroke-linecap="round"/>
	<path d="M 24.279 17 c 0 -4.137 3.01 -7.57 6.958 -8.232 C 30.784 8.692 30.32 8.65 29.846 8.65 c -4.612 0 -8.35 3.738 -8.35 8.35 s 3.738 8.35 8.35 8.35 c 0.474 0 0.939 -0.042 1.392 -0.118 C 27.288 24.569 24.279 21.137 24.279 17 z" style="stroke: none; stroke-width: 1; stroke-dasharray: none; stroke-linecap: butt; stroke-linejoin: miter; stroke-miterlimit: 10; fill: rgb(243,244,245); fill-rule: nonzero; opacity: 1;" transform=" matrix(1 0 0 1 0 0) " stroke-linecap="round"/>
	<polygon points="52.8,23.16 52.42,22.01 52.05,23.16 50.83,23.16 51.81,23.88 51.44,25.03 52.42,24.32 53.4,25.03 53.03,23.88 54.01,23.16 " style="stroke: none; stroke-width: 1; stroke-dasharray: none; stroke-linecap: butt; stroke-linejoin: miter; stroke-miterlimit: 10; fill: rgb(243,244,245); fill-rule: nonzero; opacity: 1;" transform="  matrix(1 0 0 1 0 0) "/>
	<polygon points="52.42,15.33 52.05,16.48 50.83,16.48 51.81,17.2 51.44,18.35 52.42,17.64 53.4,18.35 53.03,17.2 54.01,16.48 52.8,16.48 " style="stroke: none; stroke-width: 1; stroke-dasharray: none; stroke-linecap: butt; stroke-linejoin: miter; stroke-miterlimit: 10; fill: rgb(243,244,245); fill-rule: nonzero; opacity: 1;" transform="  matrix(1 0 0 1 0 0) "/>
	<polygon points="52.42,8.65 52.05,9.8 50.83,9.8 51.81,10.52 51.44,11.67 52.42,10.96 53.4,11.67 53.03,10.52 54.01,9.8 52.8,9.8 " style="stroke: none; stroke-width: 1; stroke-dasharray: none; stroke-linecap: butt; stroke-linejoin: miter; stroke-miterlimit: 10; fill: rgb(243,244,245); fill-rule: nonzero; opacity: 1;" transform="  matrix(1 0 0 1 0 0) "/>
	<polygon points="60.04,23.16 59.67,22.01 59.29,23.16 58.08,23.16 59.06,23.88 58.69,25.03 59.67,24.32 60.65,25.03 60.27,23.88 61.26,23.16 " style="stroke: none; stroke-width: 1; stroke-dasharray: none; stroke-linecap: butt; stroke-linejoin: miter; stroke-miterlimit: 10; fill: rgb(243,244,245); fill-rule: nonzero; opacity: 1;" transform="  matrix(1 0 0 1 0 0) "/>
	<polygon points="59.67,15.33 59.29,16.48 58.08,16.48 59.06,17.2 58.69,18.35 59.67,17.64 60.65,18.35 60.27,17.2 61.26,16.48 60.04,16.48 " style="stroke: none; stroke-width: 1; stroke-dasharray: none; stroke-linecap: butt; stroke-linejoin: miter; stroke-miterlimit: 10; fill: rgb(243,244,245); fill-rule: nonzero; opacity: 1;" transform="  matrix(1 0 0 1 0 0) "/>
	<polygon points="59.67,8.65 59.29,9.8 58.08,9.8 59.06,10.52 58.69,11.67 59.67,10.96 60.65,11.67 60.27,10.52 61.26,9.8 60.04,9.8 " style="stroke: none; stroke-width: 1; stroke-dasharray: none; stroke-linecap: butt; stroke-linejoin: miter; stroke-miterlimit: 10; fill: rgb(243,244,245); fill-rule: nonzero; opacity: 1;" transform="  matrix(1 0 0 1 0 0) "/>
	<polygon points="67.29,23.16 66.92,22.01 66.54,23.16 65.33,23.16 66.31,23.88 65.94,25.03 66.92,24.32 67.9,25.03 67.52,23.88 68.5,23.16 " style="stroke: none; stroke-width: 1; stroke-dasharray: none; stroke-linecap: butt; stroke-linejoin: miter; stroke-miterlimit: 10; fill: rgb(243,244,245); fill-rule: nonzero; opacity: 1;" transform="  matrix(1 0 0 1 0 0) "/>
	<polygon points="66.92,15.33 66.54,16.48 65.33,16.48 66.31,17.2 65.94,18.35 66.92,17.64 67.9,18.35 67.52,17.2 68.5,16.48 67.29,16.48 " style="stroke: none; stroke-width: 1; stroke-dasharray: none; stroke-linecap: butt; stroke-linejoin: miter; stroke-miterlimit: 10; fill: rgb(243,244,245); fill-rule: nonzero; opacity: 1;" transform="  matrix(1 0 0 1 0 0) "/>
	<polygon points="66.92,8.65 66.54,9.8 65.33,9.8 66.31,10.52 65.94,11.67 66.92,10.96 67.9,11.67 67.52,10.52 68.5,9.8 67.29,9.8 " style="stroke: none; stroke-width: 1; stroke-dasharray: none; stroke-linecap: butt; stroke-linejoin: miter; stroke-miterlimit: 10; fill: rgb(243,244,245); fill-rule: nonzero; opacity: 1;" transform="  matrix(1 0 0 1 0 0) "/>
	<polygon points="45.55,23.16 45.17,22.01 44.8,23.16 43.58,23.16 44.56,23.88 44.19,25.03 45.17,24.32 46.15,25.03 45.78,23.88 46.76,23.16 " style="stroke: none; stroke-width: 1; stroke-dasharray: none; stroke-linecap: butt; stroke-linejoin: miter; stroke-miterlimit: 10; fill: rgb(243,244,245); fill-rule: nonzero; opacity: 1;" transform="  matrix(1 0 0 1 0 0) "/>
	<polygon points="45.17,15.33 44.8,16.48 43.58,16.48 44.56,17.2 44.19,18.35 45.17,17.64 46.15,18.35 45.78,17.2 46.76,16.48 45.55,16.48 " style="stroke: none; stroke-width: 1; stroke-dasharray: none; stroke-linecap: butt; stroke-linejoin: miter; stroke-miterlimit: 10; fill: rgb(243,244,245); fill-rule: nonzero; opacity: 1;" transform="  matrix(1 0 0 1 0 0) "/>
	<polygon points="38.3,23.16 37.92,22.01 37.55,23.16 36.34,23.16 37.32,23.88 36.94,25.03 37.92,24.32 38.91,25.03 38.53,23.88 39.51,23.16 " style="stroke: none; stroke-width: 1; stroke-dasharray: none; stroke-linecap: butt; stroke-linejoin: miter; stroke-miterlimit: 10; fill: rgb(243,244,245); fill-rule: nonzero; opacity: 1;" transform="  matrix(1 0 0 1 0 0) "/>
</g>
</svg>